<svg xmlns="http://www.w3.org/2000/svg" version="1.1" xmlns:xlink="http://www.w3.org/1999/xlink" xmlns:svgjs="http://svgjs.dev/svgjs" width="308.7612359841165" height="304.915625" viewBox="0 0 128 128"><g transform="matrix(0.6094674556213018,0,0,0.6094674556213018,24.952219564199787,12.333870967741937)"><svg viewBox="0 0 117 155" data-background-color="#ffffff" preserveAspectRatio="xMidYMid meet" height="169" width="128" xmlns="http://www.w3.org/2000/svg" xmlns:xlink="http://www.w3.org/1999/xlink"><g id="tight-bounds" transform="matrix(1,0,0,1,0.06278538812784973,0.25)"><svg viewBox="0 0 116.8744292237443 154.5" height="154.5" width="116.8744292237443"><g><svg viewBox="0 0 116.8744292237443 154.5" height="154.5" width="116.8744292237443"><g><svg viewBox="0 0 116.8744292237443 154.5" height="154.5" width="116.8744292237443"><g id="textblocktransform"><svg viewBox="0 0 116.8744292237443 154.5" height="154.5" width="116.8744292237443" id="textblock"><g><svg viewBox="0 0 116.8744292237443 154.5" height="154.5" width="116.8744292237443"><g transform="matrix(1,0,0,1,0,0)"><svg width="116.8744292237443" viewBox="2.15 -32.35 24.85 32.85" height="154.5" data-palette-color="#c56e33"><path d="M5.6 0.5L5.6 0.5Q5 0.5 4.38 0.3 3.75 0.1 3.35-0.65 2.95-1.4 2.95-2.95L2.95-2.95Q2.95-3.95 3.13-5.53 3.3-7.1 3.5-8.6L3.5-8.6Q3.9-11.1 4.23-14.1 4.55-17.1 4.55-20.05L4.55-20.05Q4.55-21.1 4.5-22.25 4.45-23.4 4.3-24.45L4.3-24.45Q4-24.3 3.63-24.18 3.25-24.05 3-24.05L3-24.05Q2.5-24.05 2.33-24.58 2.15-25.1 2.15-25.8L2.15-25.8Q2.15-27.4 2.93-28.38 3.7-29.35 5.25-30.15L5.25-30.15Q7.3-31.3 9.63-31.83 11.95-32.35 14.05-32.35L14.05-32.35Q17.15-32.35 19.55-31.25 21.95-30.15 23.3-28.15 24.65-26.15 24.65-23.35L24.65-23.35Q24.65-20.45 23.28-18.2 21.9-15.95 19.78-14.53 17.65-13.1 15.45-12.65L15.45-12.65Q16.25-11.4 17.18-10.15 18.1-8.9 19.05-7.9L19.05-7.9Q21.9-4.95 24.85-4.95L24.85-4.95Q25.65-4.95 26.25-5.05L26.25-5.05Q26.55-5.1 26.78-4.83 27-4.55 27-3.75L27-3.75Q27-2.8 26.6-1.83 26.2-0.85 25.25-0.2 24.3 0.45 22.65 0.45L22.65 0.45Q20.7 0.45 18.93-0.85 17.15-2.15 15.65-4.17 14.15-6.2 12.98-8.45 11.8-10.7 11-12.6L11-12.6Q10.8-13.15 10.65-13.68 10.5-14.2 10.5-14.7L10.5-14.7Q10.5-15.55 11.05-16.1L11.05-16.1Q11.45-16.5 12.18-16.65 12.9-16.8 14.3-16.8L14.3-16.8Q16.95-16.8 18.6-18.25 20.25-19.7 20.25-22L20.25-22Q20.25-24.5 18.38-25.65 16.5-26.8 13.8-26.8L13.8-26.8Q11.6-26.8 9.2-26.1L9.2-26.1Q9.05-22.85 8.5-18.65L8.5-18.65Q8.2-16.15 7.98-13.7 7.75-11.25 7.75-9.25L7.75-9.25Q7.75-7.5 8.08-6.18 8.4-4.85 9.4-3.9L9.4-3.9Q10.1-3.2 10.1-2.4L10.1-2.4Q10.1-1.3 8.85-0.4 7.6 0.5 5.6 0.5Z" opacity="1" transform="matrix(1,0,0,1,0,0)" fill="#c56e33" class="wordmark-text-0" data-fill-palette-color="primary" id="text-0"></path></svg></g></svg></g></svg></g></svg></g><g></g></svg></g><defs></defs></svg><rect width="116.8744292237443" height="154.5" fill="none" stroke="none" visibility="hidden"></rect></g></svg></g></svg>